<svg xmlns="http://www.w3.org/2000/svg" width="512" height="512" viewBox="0 0 300 300" role="img" aria-labelledby="title desc" shape-rendering="geometricPrecision">
  <title id="title">OCEAN icon - Emerald</title>
  <desc id="desc">The OCEAN evidence-navigation icon in the Emerald palette.</desc>
  <defs>
    <linearGradient id="mark-bg" x1="55" y1="54" x2="230" y2="232" gradientUnits="userSpaceOnUse">
      <stop offset="0" stop-color="#EEF8F2"/>
      <stop offset="0.55" stop-color="#D0EBDA"/>
      <stop offset="1" stop-color="#94D1AA"/>
    </linearGradient>
    <linearGradient id="water" x1="58" y1="162" x2="228" y2="226" gradientUnits="userSpaceOnUse">
      <stop offset="0" stop-color="#61BB81"/>
      <stop offset="1" stop-color="#227A42"/>
    </linearGradient>
    <linearGradient id="ice" x1="121" y1="102" x2="176" y2="210" gradientUnits="userSpaceOnUse">
      <stop offset="0" stop-color="#FFFFFF"/>
      <stop offset="0.55" stop-color="#D8EEE0"/>
      <stop offset="1" stop-color="#94D1AA"/>
    </linearGradient>
  </defs>
  <circle cx="150" cy="150" r="96" fill="url(#mark-bg)" stroke="#3EA262" stroke-width="5"/>
  <circle cx="150" cy="150" r="78" fill="none" stroke="#F4FAF6" stroke-width="7"/>
  <circle cx="150" cy="150" r="49" fill="none" stroke="#D9EFE1" stroke-width="6"/>
  <path d="M63 173c23-14 45-14 67-2 18 10 36 10 56 0 22-12 44-12 67 2" fill="none" stroke="#F0F9F3" stroke-width="15" stroke-linecap="round"/>
  <path d="M67 202c22-12 43-12 65-1 23 12 42 12 64 0 21-11 42-11 64 1" fill="none" stroke="#9BD4B0" stroke-width="11" stroke-linecap="round"/>
  <path d="M61 188c26-10 48-9 70 2 18 10 36 10 57 0 21-10 43-10 66 2-16 33-54 55-103 55-50 0-89-22-105-56 5 0 10-1 15-3z" fill="url(#water)"/>
  <path d="M150 66l15 66 58 18-58 18-15 66-15-66-58-18 58-18z" fill="#FFFFFF" stroke="#F0F9F3" stroke-width="4"/>
  <path d="M150 66l15 66 58 18-58 18z" fill="#5AB87B"/>
  <path d="M150 234l-15-66-58-18 58-18z" fill="#227A42"/>
  <circle cx="150" cy="150" r="14" fill="#F7FCF9" stroke="#418D5C" stroke-width="6"/>
  <path d="M119 213l31-82 37 82z" fill="url(#ice)" stroke="#FFFFFF" stroke-width="7" stroke-linejoin="round"/>
  <path d="M150 131l-5 82h-26z" fill="#FFFFFF"/>
  <path d="M150 131l37 82h-42z" fill="#7DC798"/>
  <path d="M133 177l13 36h-27z" fill="#52B475"/>
</svg>
