<svg xmlns="http://www.w3.org/2000/svg" viewBox="0 0 512 512" role="img" aria-labelledby="title desc">
  <title id="title">OCEAN icon</title>
  <desc id="desc">A circular ocean-blue icon combining a compass, wave, and iceberg for the OCEAN claim-evidence navigation workflow.</desc>
  <defs>
    <linearGradient id="ocean-bg" x1="92" y1="64" x2="420" y2="448" gradientUnits="userSpaceOnUse">
      <stop offset="0" stop-color="#dff6ff"/>
      <stop offset="0.44" stop-color="#3da8d6"/>
      <stop offset="1" stop-color="#073b78"/>
    </linearGradient>
    <linearGradient id="ice" x1="206" y1="156" x2="306" y2="344" gradientUnits="userSpaceOnUse">
      <stop offset="0" stop-color="#ffffff"/>
      <stop offset="0.54" stop-color="#bfe9ff"/>
      <stop offset="1" stop-color="#5da9dc"/>
    </linearGradient>
    <linearGradient id="needle-blue" x1="230" y1="114" x2="292" y2="398" gradientUnits="userSpaceOnUse">
      <stop offset="0" stop-color="#ffffff"/>
      <stop offset="1" stop-color="#0b4b91"/>
    </linearGradient>
    <filter id="soft-shadow" x="-20%" y="-20%" width="140%" height="140%">
      <feDropShadow dx="0" dy="14" stdDeviation="16" flood-color="#042b55" flood-opacity="0.28"/>
    </filter>
  </defs>

  <rect width="512" height="512" rx="112" fill="#f7fbff"/>
  <circle cx="256" cy="256" r="202" fill="url(#ocean-bg)" filter="url(#soft-shadow)"/>
  <circle cx="256" cy="256" r="190" fill="none" stroke="#eaf8ff" stroke-width="8" opacity="0.95"/>

  <path d="M102 305c37-22 67-23 101-3 33 19 66 20 104 0 37-20 69-19 103 3 14 9 27 14 40 15-25 81-101 140-194 140-91 0-168-59-194-141 13-1 26-6 40-14z" fill="#083a72" opacity="0.62"/>
  <path d="M91 286c42-30 79-31 119-7 35 21 67 21 104 0 40-23 78-23 119 7" fill="none" stroke="#c9f4ff" stroke-width="18" stroke-linecap="round"/>
  <path d="M95 334c38-24 75-25 111-3 38 23 71 23 109 1 40-23 74-22 112 2" fill="none" stroke="#8be1ff" stroke-width="12" stroke-linecap="round" opacity="0.78"/>

  <circle cx="256" cy="256" r="126" fill="none" stroke="#d8f7ff" stroke-width="6" opacity="0.65"/>
  <circle cx="256" cy="256" r="86" fill="none" stroke="#d8f7ff" stroke-width="4" opacity="0.5"/>
  <path d="M256 64l22 118 82-86-50 109 119-22-109 50 86 82-118-22-32 119-32-119-118 22 86-82-109-50 119 22-50-109 82 86z" fill="#ffffff" opacity="0.2"/>

  <path d="M256 90l35 143 124 23-124 23-35 143-35-143-124-23 124-23z" fill="#ffffff" opacity="0.9"/>
  <path d="M256 90l35 143 124 23-124 23z" fill="url(#needle-blue)"/>
  <path d="M256 422l-35-143-124-23 124-23z" fill="#092f63"/>
  <path d="M97 256l124-23 35-143v332l-35-143z" fill="#1c88c2" opacity="0.9"/>
  <path d="M415 256l-124 23-35 143V90l35 143z" fill="#ffffff" opacity="0.74"/>
  <circle cx="256" cy="256" r="26" fill="#f7fbff" stroke="#073b78" stroke-width="10"/>

  <path d="M203 330l53-122 62 122z" fill="url(#ice)" stroke="#f7fdff" stroke-width="8" stroke-linejoin="round"/>
  <path d="M256 208l-4 122h-49z" fill="#ffffff" opacity="0.72"/>
  <path d="M256 208l62 122h-66z" fill="#73bee8" opacity="0.7"/>
  <path d="M223 281l31 49h-51z" fill="#2688c5" opacity="0.46"/>

  <circle cx="174" cy="124" r="8" fill="#ffffff" opacity="0.82"/>
  <circle cx="360" cy="142" r="6" fill="#ffffff" opacity="0.68"/>
  <circle cx="136" cy="209" r="5" fill="#ffffff" opacity="0.72"/>
</svg>
